<?xml version="1.0" encoding="utf-8"?>
<!-- Generator: Adobe Illustrator 26.4.1, SVG Export Plug-In . SVG Version: 6.00 Build 0)  -->
<svg version="1.1" id="Outline" xmlns="http://www.w3.org/2000/svg" xmlns:xlink="http://www.w3.org/1999/xlink" x="0px" y="0px"
	 viewBox="0 0 512 512" style="enable-background:new 0 0 512 512;" xml:space="preserve">
<style type="text/css">
	.st0{fill:#9F9393;}
</style>
<path class="st0" d="M256,0C114.6,0,0,114.6,0,256s114.6,256,256,256s256-114.6,256-256C511.8,114.7,397.3,0.2,256,0z M256,469.3
	c-117.8,0-213.3-95.5-213.3-213.3S138.2,42.7,256,42.7S469.3,138.2,469.3,256C469.2,373.8,373.8,469.2,256,469.3z"/>
<path class="st0" d="M256,128c-11.8,0-21.3,9.6-21.3,21.3v92.3l-71.9,45.1c-10,6.3-13.1,19.4-6.8,29.5c6.3,10,19.4,13.1,29.5,6.8
	l81.9-51.2c6.3-3.9,10.1-10.9,10-18.3V149.3C277.3,137.6,267.8,128,256,128z"/>
</svg>
